<mxfile host="app.diagrams.net" modified="2024-06-04T13:13:44.193Z" agent="Mozilla/5.0 (Windows NT 10.0; Win64; x64) AppleWebKit/537.36 (KHTML, like Gecko) Chrome/125.0.0.0 Safari/537.36" etag="ECc9TGdedMBPGRmq9JvV" version="24.4.13" type="device">
  <diagram name="Page-1" id="xCCvmO3GSNHjn5PON8mt">
    <mxGraphModel dx="1120" dy="468" grid="1" gridSize="10" guides="1" tooltips="1" connect="1" arrows="1" fold="1" page="1" pageScale="1" pageWidth="850" pageHeight="1100" math="0" shadow="0">
      <root>
        <mxCell id="0" />
        <mxCell id="1" parent="0" />
        <mxCell id="umY1vbOam9ozBfluCwEY-1" value="Vertical Container" style="swimlane;whiteSpace=wrap;html=1;startSize=20;" vertex="1" parent="1">
          <mxGeometry x="70" y="50" width="720" height="690" as="geometry" />
        </mxCell>
        <mxCell id="umY1vbOam9ozBfluCwEY-2" value="" style="ellipse;html=1;shape=startState;fillColor=#000000;strokeColor=#ff0000;" vertex="1" parent="umY1vbOam9ozBfluCwEY-1">
          <mxGeometry x="70" y="70" width="30" height="30" as="geometry" />
        </mxCell>
        <mxCell id="umY1vbOam9ozBfluCwEY-3" value="" style="edgeStyle=orthogonalEdgeStyle;html=1;verticalAlign=bottom;endArrow=open;endSize=8;strokeColor=#ff0000;rounded=0;" edge="1" source="umY1vbOam9ozBfluCwEY-2" parent="umY1vbOam9ozBfluCwEY-1">
          <mxGeometry relative="1" as="geometry">
            <mxPoint x="85" y="160" as="targetPoint" />
          </mxGeometry>
        </mxCell>
        <mxCell id="umY1vbOam9ozBfluCwEY-4" value="" style="shape=crossbar;whiteSpace=wrap;html=1;rounded=1;direction=south;" vertex="1" parent="1">
          <mxGeometry x="410" y="70" width="20" height="190" as="geometry" />
        </mxCell>
      </root>
    </mxGraphModel>
  </diagram>
</mxfile>
